<svg width="138" height="19" viewBox="0 0 138 19" fill="none" xmlns="http://www.w3.org/2000/svg">
<path d="M0.015625 14.5103C0.015625 14.3198 0.034668 14.0744 0.0727539 13.7739C0.11084 13.4735 0.176432 13.0968 0.269531 12.644C0.36263 12.1912 0.489583 11.6559 0.650391 11.0381C0.811198 10.416 1.01432 9.69238 1.25977 8.86719C1.12858 8.85449 1.00374 8.83968 0.885254 8.82275C0.770996 8.8016 0.669434 8.76986 0.580566 8.72754C0.495931 8.68099 0.428223 8.61751 0.377441 8.53711C0.32666 8.45247 0.30127 8.33822 0.30127 8.19434C0.30127 7.99121 0.335124 7.79867 0.402832 7.6167C0.474772 7.4305 0.580566 7.26546 0.720215 7.12158C0.859863 6.9777 1.03125 6.86133 1.23438 6.77246C1.4375 6.68359 1.67236 6.63704 1.93896 6.63281C1.94743 6.4974 1.95378 6.36621 1.95801 6.23926C1.96647 6.10807 1.97493 5.97054 1.9834 5.82666C1.99609 5.67855 2.0109 5.51562 2.02783 5.33789C2.04476 5.16016 2.06592 4.95068 2.09131 4.70947C2.15055 4.13818 2.27751 3.61133 2.47217 3.12891C2.67106 2.64648 2.92074 2.23177 3.22119 1.88477C3.52165 1.53776 3.86442 1.26693 4.24951 1.07227C4.63883 0.877604 5.05566 0.780273 5.5 0.780273C5.80046 0.780273 6.05859 0.80778 6.27441 0.862793C6.49447 0.917806 6.67432 1.00667 6.81396 1.12939C6.95785 1.25212 7.06364 1.41081 7.13135 1.60547C7.20329 1.80013 7.23926 2.03711 7.23926 2.31641C7.23926 2.45182 7.22868 2.58512 7.20752 2.71631C7.19059 2.84749 7.15674 2.99137 7.10596 3.14795C7.05941 3.30452 6.99382 3.48226 6.90918 3.68115C6.82878 3.87581 6.7251 4.10645 6.59814 4.37305C6.47542 4.63542 6.32731 4.9401 6.15381 5.28711C5.98031 5.63411 5.7793 6.03825 5.55078 6.49951C5.75391 6.49105 5.96761 6.48258 6.19189 6.47412C6.42041 6.46143 6.63835 6.44661 6.8457 6.42969C7.05306 6.41276 7.23926 6.39583 7.4043 6.37891C7.57357 6.35775 7.70052 6.3387 7.78516 6.32178C7.86556 6.38102 7.93538 6.45296 7.99463 6.5376C8.05811 6.62223 8.111 6.71322 8.15332 6.81055C8.19564 6.90788 8.22738 7.00944 8.24854 7.11523C8.26969 7.2168 8.28027 7.31624 8.28027 7.41357C8.28027 7.65902 8.24219 7.88753 8.16602 8.09912C8.08984 8.31071 7.98405 8.49479 7.84863 8.65137C7.71322 8.80794 7.55452 8.93066 7.37256 9.01953C7.19059 9.1084 6.9917 9.15283 6.77588 9.15283C6.62354 9.15283 6.47331 9.15072 6.3252 9.14648C6.18132 9.14225 6.0332 9.1359 5.88086 9.12744C5.72852 9.11475 5.56982 9.09782 5.40479 9.07666C5.23975 9.0555 5.06413 9.03011 4.87793 9.00049C4.7002 9.71566 4.55208 10.3441 4.43359 10.8857C4.31934 11.4274 4.22624 11.8908 4.1543 12.2759C4.08659 12.661 4.03792 12.972 4.0083 13.209C3.97868 13.4417 3.96387 13.6068 3.96387 13.7041C3.96387 14.013 4.01253 14.2415 4.10986 14.3896C4.21143 14.5378 4.39762 14.6118 4.66846 14.6118C4.93506 14.6118 5.24186 14.5335 5.58887 14.377C5.9401 14.2204 6.31673 13.9876 6.71875 13.6787C7.12077 13.3656 7.53971 12.9762 7.97559 12.5107C8.41146 12.041 8.85156 11.4951 9.2959 10.873C9.41862 10.873 9.54134 10.8942 9.66406 10.9365C9.79102 10.9788 9.90316 11.0402 10.0005 11.1206C10.1021 11.1968 10.1825 11.2899 10.2417 11.3999C10.3052 11.5057 10.3369 11.6242 10.3369 11.7554C10.3369 11.9458 10.2777 12.1807 10.1592 12.46C10.0407 12.7393 9.87565 13.0418 9.66406 13.3677C9.45671 13.6935 9.20703 14.0342 8.91504 14.3896C8.62728 14.7409 8.31201 15.0858 7.96924 15.4243C7.6307 15.7629 7.26888 16.0845 6.88379 16.3892C6.50293 16.6938 6.11361 16.9626 5.71582 17.1953C5.32227 17.4238 4.92448 17.6058 4.52246 17.7412C4.12467 17.8766 3.73958 17.9443 3.36719 17.9443C2.86784 17.9443 2.41081 17.8766 1.99609 17.7412C1.58561 17.61 1.23226 17.4048 0.936035 17.1255C0.644043 16.8462 0.417643 16.4907 0.256836 16.0591C0.0960286 15.6232 0.015625 15.1069 0.015625 14.5103ZM13.7964 9.00049C13.7964 8.72542 13.7477 8.51383 13.6504 8.36572C13.5573 8.21338 13.4325 8.13721 13.2759 8.13721C13.187 8.13721 13.0791 8.19434 12.9521 8.30859C12.8294 8.41862 12.7067 8.58577 12.584 8.81006C12.4613 9.03434 12.3491 9.31576 12.2476 9.6543C12.1502 9.99284 12.0783 10.3885 12.0317 10.8413C12.3957 10.7778 12.6919 10.6826 12.9204 10.5557C13.1489 10.4245 13.3288 10.2764 13.46 10.1113C13.5911 9.94629 13.68 9.76855 13.7266 9.57812C13.7731 9.3877 13.7964 9.19515 13.7964 9.00049ZM11.9238 17.7349C11.2891 17.7349 10.7368 17.6375 10.2671 17.4429C9.8016 17.2482 9.41439 16.9647 9.10547 16.5923C8.80078 16.2157 8.57438 15.7565 8.42627 15.2148C8.27816 14.6689 8.2041 14.0448 8.2041 13.3423C8.2041 12.6864 8.28662 12.0368 8.45166 11.3936C8.6167 10.7461 8.84098 10.1283 9.12451 9.54004C9.40804 8.95182 9.73812 8.40592 10.1147 7.90234C10.4956 7.39876 10.8976 6.96289 11.3208 6.59473C11.744 6.22233 12.1777 5.93245 12.6221 5.7251C13.0706 5.51351 13.5065 5.40771 13.9297 5.40771C14.8268 5.40771 15.5145 5.62777 15.9927 6.06787C16.4709 6.50374 16.71 7.1766 16.71 8.08643C16.71 8.63232 16.6253 9.14648 16.4561 9.62891C16.2868 10.1071 16.0096 10.5472 15.6245 10.9492C15.2437 11.347 14.7443 11.7004 14.1265 12.0093C13.5129 12.314 12.7617 12.5679 11.873 12.771C11.873 13.063 11.89 13.3232 11.9238 13.5518C11.9619 13.776 12.0254 13.9644 12.1143 14.1167C12.2074 14.269 12.3343 14.3854 12.4951 14.4658C12.6602 14.5462 12.8696 14.5864 13.1235 14.5864C13.5636 14.5864 14.0291 14.4976 14.52 14.3198C15.0151 14.1379 15.506 13.8818 15.9927 13.5518C16.4836 13.2217 16.9575 12.826 17.4146 12.3647C17.8758 11.8993 18.2905 11.383 18.6587 10.8159C18.8153 10.8201 18.9549 10.8498 19.0776 10.9048C19.2004 10.9556 19.304 11.0212 19.3887 11.1016C19.4733 11.1777 19.5368 11.2666 19.5791 11.3682C19.6257 11.4697 19.6489 11.5713 19.6489 11.6729C19.6489 11.9141 19.5833 12.187 19.4521 12.4917C19.3252 12.7922 19.1453 13.1074 18.9126 13.4375C18.6841 13.7633 18.4111 14.0977 18.0938 14.4404C17.7764 14.779 17.4294 15.109 17.0527 15.4307C16.6761 15.748 16.2762 16.0464 15.853 16.3257C15.4299 16.605 14.9982 16.8504 14.5581 17.062C14.118 17.2694 13.6737 17.4323 13.2251 17.5508C12.7808 17.6735 12.347 17.7349 11.9238 17.7349ZM23.064 14.4849C22.8566 15.0773 22.6281 15.5682 22.3784 15.9575C22.133 16.3426 21.8812 16.6494 21.623 16.8779C21.3649 17.1064 21.1068 17.2673 20.8486 17.3604C20.5947 17.4535 20.3535 17.5 20.125 17.5C19.7526 17.5 19.4077 17.4238 19.0903 17.2715C18.7772 17.1191 18.5063 16.8927 18.2778 16.5923C18.0493 16.2918 17.8695 15.9173 17.7383 15.4688C17.6113 15.0202 17.5479 14.5018 17.5479 13.9136C17.5479 13.2619 17.6304 12.6123 17.7954 11.9648C17.9647 11.3174 18.1932 10.6995 18.481 10.1113C18.7687 9.51888 19.103 8.96875 19.4839 8.46094C19.869 7.94889 20.2773 7.50667 20.709 7.13428C21.1406 6.75765 21.585 6.46354 22.042 6.25195C22.499 6.03613 22.9434 5.92822 23.375 5.92822C23.557 5.92822 23.6987 5.94303 23.8003 5.97266C23.9019 5.99805 23.9844 6.0446 24.0479 6.1123L24.1304 4.60156C24.2319 4.4873 24.3631 4.40267 24.5239 4.34766C24.6847 4.29264 24.8561 4.26514 25.0381 4.26514C25.4824 4.26514 25.8739 4.33285 26.2124 4.46826C26.5509 4.60368 26.8345 4.77507 27.063 4.98242C27.2957 5.18555 27.4714 5.41195 27.5898 5.66162C27.7083 5.90706 27.7676 6.14404 27.7676 6.37256C27.7676 6.54183 27.7464 6.77881 27.7041 7.0835C27.6618 7.38818 27.5877 7.72249 27.4819 8.08643C27.2534 8.90316 27.0588 9.62256 26.8979 10.2446C26.7414 10.8667 26.6123 11.4041 26.5107 11.8569C26.4134 12.3097 26.3415 12.6842 26.2949 12.9805C26.2526 13.2767 26.2314 13.5094 26.2314 13.6787C26.2314 13.8099 26.2378 13.9157 26.2505 13.9961C26.2632 14.0723 26.2822 14.1315 26.3076 14.1738C26.3372 14.2161 26.3711 14.2437 26.4092 14.2563C26.4515 14.269 26.498 14.2754 26.5488 14.2754C26.68 14.2754 26.8599 14.2119 27.0884 14.085C27.3169 13.958 27.5835 13.7591 27.8882 13.4883C28.1929 13.2174 28.5314 12.8726 28.9038 12.4536C29.2762 12.0347 29.6698 11.5332 30.0845 10.9492C30.2199 10.9492 30.3468 10.9704 30.4653 11.0127C30.5838 11.0508 30.6854 11.1058 30.77 11.1777C30.8547 11.2497 30.9202 11.3343 30.9668 11.4316C31.0176 11.529 31.043 11.6369 31.043 11.7554C31.043 11.967 30.9795 12.2124 30.8525 12.4917C30.7256 12.771 30.5542 13.0693 30.3384 13.3867C30.1226 13.6999 29.8687 14.0236 29.5767 14.3579C29.2889 14.688 28.98 15.0096 28.6499 15.3228C28.3241 15.6359 27.9855 15.9321 27.6343 16.2114C27.2873 16.4907 26.9466 16.7362 26.6123 16.9478C26.278 17.1551 25.9585 17.3201 25.6538 17.4429C25.3534 17.5656 25.0868 17.627 24.854 17.627C24.5705 17.627 24.3123 17.5931 24.0796 17.5254C23.8468 17.4619 23.6501 17.3498 23.4893 17.189C23.3285 17.0239 23.2036 16.806 23.1147 16.5352C23.0259 16.2601 22.9814 15.9152 22.9814 15.5005C22.9814 15.3566 22.9878 15.2 23.0005 15.0308C23.0174 14.8615 23.0386 14.6795 23.064 14.4849ZM23.9209 7.80078C23.5951 8.00814 23.2798 8.29167 22.9751 8.65137C22.6704 9.00684 22.3996 9.40885 22.1626 9.85742C21.9256 10.306 21.7352 10.7821 21.5913 11.2856C21.4474 11.7892 21.3755 12.2928 21.3755 12.7964C21.3755 13.0376 21.3924 13.228 21.4263 13.3677C21.4644 13.5073 21.513 13.6152 21.5723 13.6914C21.6357 13.7633 21.7077 13.8099 21.7881 13.8311C21.8727 13.8522 21.9595 13.8628 22.0483 13.8628C22.2303 13.8628 22.4102 13.8035 22.5879 13.6851C22.7656 13.5666 22.9328 13.4079 23.0894 13.209L23.9209 7.80078ZM38.9077 10.1177C39.4409 9.31787 39.9318 8.6429 40.3804 8.09277C40.8289 7.54264 41.2458 7.09831 41.6309 6.75977C42.016 6.42122 42.3714 6.1779 42.6973 6.02979C43.0231 5.87744 43.3278 5.80127 43.6113 5.80127C43.9118 5.80127 44.172 5.85417 44.3921 5.95996C44.6164 6.06576 44.8005 6.20752 44.9443 6.38525C45.0924 6.55876 45.2025 6.76188 45.2744 6.99463C45.3464 7.22738 45.3823 7.4707 45.3823 7.72461C45.3823 8.06315 45.3231 8.45671 45.2046 8.90527C45.0903 9.35384 44.9147 9.85319 44.6777 10.4033C44.6016 10.5938 44.5106 10.8117 44.4048 11.0571C44.299 11.2983 44.1911 11.5522 44.0811 11.8188C43.971 12.0812 43.861 12.3478 43.751 12.6187C43.641 12.8853 43.5436 13.137 43.459 13.374C43.3743 13.611 43.3045 13.8247 43.2495 14.0151C43.1987 14.2013 43.1733 14.3494 43.1733 14.4595C43.1733 14.6034 43.203 14.7049 43.2622 14.7642C43.3257 14.8192 43.4167 14.8467 43.5352 14.8467C43.6536 14.8467 43.8398 14.7642 44.0938 14.5991C44.3519 14.4299 44.6545 14.1823 45.0015 13.8564C45.3527 13.5264 45.7378 13.118 46.1567 12.6313C46.5799 12.1447 47.0158 11.584 47.4644 10.9492C47.5871 10.9492 47.7077 10.9704 47.8262 11.0127C47.9489 11.0508 48.0568 11.1079 48.1499 11.1841C48.2472 11.256 48.3255 11.3449 48.3848 11.4507C48.444 11.5565 48.4736 11.675 48.4736 11.8062C48.4736 12.0093 48.4059 12.2568 48.2705 12.5488C48.1393 12.8408 47.9574 13.154 47.7246 13.4883C47.4919 13.8226 47.2189 14.1717 46.9058 14.5356C46.5968 14.8953 46.2625 15.2487 45.9028 15.5957C45.5431 15.9385 45.1686 16.2643 44.7793 16.5732C44.3942 16.8822 44.0112 17.153 43.6304 17.3857C43.2495 17.6185 42.8792 17.8026 42.5195 17.938C42.1641 18.0776 41.8361 18.1475 41.5356 18.1475C41.1506 18.1475 40.8268 18.1051 40.5645 18.0205C40.3021 17.9359 40.0905 17.8068 39.9297 17.6333C39.7689 17.4598 39.6525 17.2419 39.5806 16.9795C39.5129 16.7129 39.479 16.4019 39.479 16.0464C39.479 15.7586 39.5171 15.4391 39.5933 15.0879C39.6694 14.7367 39.7646 14.3791 39.8789 14.0151C39.9932 13.647 40.1159 13.283 40.2471 12.9233C40.3783 12.5636 40.501 12.2336 40.6152 11.9331C40.7295 11.6284 40.8247 11.3639 40.9009 11.1396C40.9771 10.9154 41.0151 10.7567 41.0151 10.6636C41.0151 10.4562 40.9115 10.3525 40.7041 10.3525C40.6449 10.3525 40.5454 10.3885 40.4058 10.4604C40.2703 10.5324 40.1053 10.6466 39.9106 10.8032C39.7202 10.9556 39.5086 11.1566 39.2759 11.4062C39.0431 11.6517 38.7998 11.95 38.5459 12.3013C38.4528 12.8006 38.3682 13.2725 38.292 13.7168C38.2158 14.1569 38.146 14.5864 38.0825 15.0054C38.0233 15.4201 37.9725 15.8348 37.9302 16.2495C37.8921 16.66 37.8625 17.0853 37.8413 17.5254C37.7778 17.5889 37.7122 17.646 37.6445 17.6968C37.5811 17.7476 37.5091 17.7878 37.4287 17.8174C37.3483 17.8512 37.2573 17.8766 37.1558 17.8936C37.0542 17.9105 36.9357 17.9189 36.8003 17.9189C36.4364 17.9189 36.1042 17.8787 35.8037 17.7983C35.5033 17.7222 35.2451 17.5973 35.0293 17.4238C34.8135 17.2503 34.6442 17.0282 34.5215 16.7573C34.403 16.4823 34.3395 16.1501 34.3311 15.7607C34.3311 15.5111 34.3543 15.2339 34.4009 14.9292C34.4517 14.6203 34.5173 14.3008 34.5977 13.9707C34.6781 13.6406 34.7712 13.3063 34.877 12.9678C34.987 12.625 35.0991 12.2992 35.2134 11.9902C35.2642 11.8464 35.3149 11.7046 35.3657 11.5649C35.4207 11.4211 35.4694 11.2856 35.5117 11.1587C35.554 11.0317 35.5879 10.9154 35.6133 10.8096C35.6429 10.7038 35.6577 10.6191 35.6577 10.5557C35.6577 10.4414 35.6323 10.361 35.5815 10.3145C35.5308 10.2679 35.4525 10.2446 35.3467 10.2446C35.2874 10.2446 35.2028 10.2721 35.0928 10.3271C34.987 10.3822 34.8558 10.4795 34.6992 10.6191C34.5469 10.7546 34.367 10.9386 34.1597 11.1714C33.9565 11.3999 33.728 11.6898 33.4741 12.041C33.3853 12.5404 33.3027 13.0122 33.2266 13.4565C33.1546 13.8966 33.089 14.3262 33.0298 14.7451C32.9748 15.1598 32.9282 15.5745 32.8901 15.9893C32.8521 16.3997 32.8224 16.825 32.8013 17.2651C32.7378 17.3286 32.6743 17.3836 32.6108 17.4302C32.5516 17.4725 32.4839 17.5063 32.4077 17.5317C32.3315 17.5571 32.2406 17.5741 32.1348 17.5825C32.0332 17.5952 31.9084 17.6016 31.7603 17.6016C31.3963 17.6016 31.0599 17.5233 30.751 17.3667C30.4421 17.2059 30.1733 16.9901 29.9448 16.7192C29.7205 16.4484 29.5428 16.1374 29.4116 15.7861C29.2847 15.4307 29.217 15.0583 29.2085 14.6689C29.2085 14.4193 29.2254 14.1527 29.2593 13.8691C29.2931 13.5814 29.3418 13.2852 29.4053 12.9805C29.4688 12.6715 29.5449 12.3605 29.6338 12.0474C29.7269 11.7342 29.8285 11.4274 29.9385 11.127C29.8327 10.8815 29.7629 10.617 29.729 10.3335C29.6951 10.05 29.6782 9.77913 29.6782 9.521C29.6782 9.26286 29.7311 9.00049 29.8369 8.73389C29.9469 8.46305 30.0929 8.20068 30.2749 7.94678C30.4611 7.68864 30.6769 7.44531 30.9224 7.2168C31.1678 6.98828 31.4259 6.78939 31.6968 6.62012C31.9718 6.44661 32.2533 6.3112 32.541 6.21387C32.8288 6.1123 33.106 6.06152 33.3726 6.06152C33.7492 6.06152 34.0285 6.14616 34.2104 6.31543C34.3966 6.48047 34.4897 6.75977 34.4897 7.15332C34.4897 7.31413 34.4771 7.49398 34.4517 7.69287C34.4263 7.88753 34.3818 8.10547 34.3184 8.34668C34.2591 8.58789 34.1766 8.85449 34.0708 9.14648C33.9692 9.43424 33.8402 9.74951 33.6836 10.0923C34.1576 9.27132 34.5955 8.60059 34.9976 8.08008C35.4038 7.55957 35.7826 7.14909 36.1338 6.84863C36.4893 6.54818 36.8215 6.34294 37.1304 6.23291C37.4435 6.11865 37.7419 6.06152 38.0254 6.06152C38.2708 6.06152 38.4888 6.10173 38.6792 6.18213C38.8696 6.2583 39.0283 6.36621 39.1553 6.50586C39.2865 6.64128 39.3859 6.80208 39.4536 6.98828C39.5213 7.17448 39.5552 7.37549 39.5552 7.59131C39.5552 7.76058 39.5509 7.92985 39.5425 8.09912C39.534 8.26416 39.5086 8.44401 39.4663 8.63867C39.424 8.83333 39.3584 9.05127 39.2695 9.29248C39.1849 9.52946 39.0643 9.80452 38.9077 10.1177ZM57.6206 14.4849C57.4132 15.0773 57.1847 15.5682 56.9351 15.9575C56.6896 16.3426 56.4378 16.6494 56.1797 16.8779C55.9215 17.1064 55.6634 17.2673 55.4053 17.3604C55.1514 17.4535 54.9102 17.5 54.6816 17.5C54.3092 17.5 53.9644 17.4238 53.647 17.2715C53.3338 17.1191 53.063 16.8927 52.8345 16.5923C52.606 16.2918 52.4261 15.9173 52.2949 15.4688C52.168 15.0202 52.1045 14.5018 52.1045 13.9136C52.1045 13.2619 52.187 12.6123 52.3521 11.9648C52.5213 11.3174 52.7498 10.6995 53.0376 10.1113C53.3254 9.51888 53.6597 8.96875 54.0405 8.46094C54.4256 7.94889 54.834 7.50667 55.2656 7.13428C55.6973 6.75765 56.1416 6.46354 56.5986 6.25195C57.0557 6.03613 57.5 5.92822 57.9316 5.92822C58.1136 5.92822 58.2554 5.94303 58.3569 5.97266C58.4585 5.99805 58.541 6.0446 58.6045 6.1123L58.687 4.60156C58.7886 4.4873 58.9198 4.40267 59.0806 4.34766C59.2414 4.29264 59.4128 4.26514 59.5947 4.26514C60.0391 4.26514 60.4305 4.33285 60.769 4.46826C61.1076 4.60368 61.3911 4.77507 61.6196 4.98242C61.8524 5.18555 62.028 5.41195 62.1465 5.66162C62.265 5.90706 62.3242 6.14404 62.3242 6.37256C62.3242 6.54183 62.3031 6.77881 62.2607 7.0835C62.2184 7.38818 62.1444 7.72249 62.0386 8.08643C61.8101 8.90316 61.6154 9.62256 61.4546 10.2446C61.298 10.8667 61.1689 11.4041 61.0674 11.8569C60.9701 12.3097 60.8981 12.6842 60.8516 12.9805C60.8092 13.2767 60.7881 13.5094 60.7881 13.6787C60.7881 13.8099 60.7944 13.9157 60.8071 13.9961C60.8198 14.0723 60.8389 14.1315 60.8643 14.1738C60.8939 14.2161 60.9277 14.2437 60.9658 14.2563C61.0081 14.269 61.0547 14.2754 61.1055 14.2754C61.2367 14.2754 61.4165 14.2119 61.645 14.085C61.8735 13.958 62.1401 13.7591 62.4448 13.4883C62.7495 13.2174 63.0881 12.8726 63.4604 12.4536C63.8328 12.0347 64.2264 11.5332 64.6411 10.9492C64.7765 10.9492 64.9035 10.9704 65.022 11.0127C65.1405 11.0508 65.242 11.1058 65.3267 11.1777C65.4113 11.2497 65.4769 11.3343 65.5234 11.4316C65.5742 11.529 65.5996 11.6369 65.5996 11.7554C65.5996 11.967 65.5361 12.2124 65.4092 12.4917C65.2822 12.771 65.1108 13.0693 64.895 13.3867C64.6792 13.6999 64.4253 14.0236 64.1333 14.3579C63.8455 14.688 63.5366 15.0096 63.2065 15.3228C62.8807 15.6359 62.5422 15.9321 62.1909 16.2114C61.8439 16.4907 61.5033 16.7362 61.1689 16.9478C60.8346 17.1551 60.5151 17.3201 60.2104 17.4429C59.91 17.5656 59.6434 17.627 59.4106 17.627C59.1271 17.627 58.869 17.5931 58.6362 17.5254C58.4035 17.4619 58.2067 17.3498 58.0459 17.189C57.8851 17.0239 57.7603 16.806 57.6714 16.5352C57.5825 16.2601 57.5381 15.9152 57.5381 15.5005C57.5381 15.3566 57.5444 15.2 57.5571 15.0308C57.5741 14.8615 57.5952 14.6795 57.6206 14.4849ZM58.4775 7.80078C58.1517 8.00814 57.8364 8.29167 57.5317 8.65137C57.2271 9.00684 56.9562 9.40885 56.7192 9.85742C56.4823 10.306 56.2918 10.7821 56.1479 11.2856C56.0041 11.7892 55.9321 12.2928 55.9321 12.7964C55.9321 13.0376 55.9491 13.228 55.9829 13.3677C56.021 13.5073 56.0697 13.6152 56.1289 13.6914C56.1924 13.7633 56.2643 13.8099 56.3447 13.8311C56.4294 13.8522 56.5161 13.8628 56.605 13.8628C56.7869 13.8628 56.9668 13.8035 57.1445 13.6851C57.3223 13.5666 57.4894 13.4079 57.646 13.209L58.4775 7.80078ZM65.5361 8.9751C65.4134 8.8693 65.314 8.75716 65.2378 8.63867C65.1616 8.51595 65.1024 8.39111 65.0601 8.26416C65.022 8.13721 64.9966 8.01025 64.9839 7.8833C64.9712 7.75635 64.9648 7.63363 64.9648 7.51514C64.9691 7.2443 65.022 6.97982 65.1235 6.72168C65.2293 6.45931 65.3732 6.21175 65.5552 5.979C65.7371 5.74202 65.953 5.52409 66.2026 5.3252C66.4523 5.1263 66.7253 4.95492 67.0215 4.81104C67.3177 4.66292 67.6287 4.54867 67.9546 4.46826C68.2847 4.38363 68.6211 4.34131 68.9639 4.34131C69.3109 4.34131 69.605 4.38363 69.8462 4.46826C70.0874 4.54867 70.2821 4.66081 70.4302 4.80469C70.5825 4.94857 70.6925 5.11784 70.7603 5.3125C70.828 5.50293 70.8618 5.70817 70.8618 5.92822C70.8618 5.99593 70.8597 6.06152 70.8555 6.125C70.8555 6.18848 70.8491 6.25407 70.8364 6.32178C70.5571 6.61377 70.2799 6.94808 70.0049 7.32471C69.7298 7.70133 69.4674 8.09912 69.2178 8.51807C68.9681 8.93701 68.7375 9.36654 68.5259 9.80664C68.3143 10.2467 68.1302 10.6784 67.9736 11.1016C67.8213 11.5247 67.7007 11.931 67.6118 12.3203C67.5272 12.7054 67.4849 13.0545 67.4849 13.3677C67.4849 13.7697 67.5441 14.0532 67.6626 14.2183C67.7853 14.3791 67.9504 14.4595 68.1577 14.4595C68.2212 14.4595 68.3037 14.4552 68.4053 14.4468C68.5068 14.4383 68.6147 14.4193 68.729 14.3896C68.8433 14.36 68.9596 14.3177 69.0781 14.2627C69.1966 14.2077 69.3066 14.1336 69.4082 14.0405C69.3955 13.9517 69.387 13.8184 69.3828 13.6406C69.3828 13.4629 69.3828 13.2767 69.3828 13.082C69.3828 12.57 69.4294 12.0579 69.5225 11.5459C69.6198 11.0296 69.7489 10.5345 69.9097 10.0605C70.0747 9.58659 70.2651 9.14437 70.481 8.73389C70.701 8.31917 70.9338 7.96159 71.1792 7.66113C71.4246 7.35645 71.6785 7.11735 71.9409 6.94385C72.2033 6.77035 72.4593 6.68359 72.709 6.68359C73.0391 6.68359 73.3205 6.73438 73.5532 6.83594C73.786 6.9375 73.9743 7.07715 74.1182 7.25488C74.262 7.42839 74.3657 7.63574 74.4292 7.87695C74.4969 8.11816 74.5308 8.37842 74.5308 8.65771C74.5308 8.94971 74.4906 9.29883 74.4102 9.70508C74.334 10.1071 74.2134 10.5387 74.0483 11C73.8833 11.457 73.6696 11.931 73.4072 12.4219C73.1491 12.9128 72.8381 13.3931 72.4741 13.8628C72.5037 14.214 72.5863 14.4743 72.7217 14.6436C72.8613 14.8128 73.0221 14.8975 73.2041 14.8975C73.3818 14.8975 73.5511 14.834 73.7119 14.707C73.8727 14.5801 74.0229 14.4087 74.1626 14.1929C74.3065 13.9728 74.4377 13.7168 74.5562 13.4248C74.6789 13.1286 74.7889 12.8133 74.8862 12.479C74.9836 12.1405 75.0703 11.7913 75.1465 11.4316C75.2227 11.0719 75.2861 10.7186 75.3369 10.3716C75.3877 10.0203 75.4258 9.68392 75.4512 9.3623C75.4808 9.03646 75.4956 8.74235 75.4956 8.47998C75.4956 8.3234 75.4893 8.15625 75.4766 7.97852C75.4681 7.79655 75.4554 7.61458 75.4385 7.43262C75.4215 7.25065 75.4067 7.07503 75.394 6.90576C75.3813 6.73649 75.3708 6.58415 75.3623 6.44873C75.4808 6.25407 75.6564 6.09749 75.8892 5.979C76.1219 5.86051 76.3885 5.80127 76.689 5.80127C76.9683 5.80127 77.2137 5.84147 77.4253 5.92188C77.6411 5.99805 77.8273 6.10384 77.9839 6.23926C78.1447 6.37044 78.2801 6.5249 78.3901 6.70264C78.5002 6.87614 78.589 7.06022 78.6567 7.25488C78.7244 7.44531 78.7731 7.63997 78.8027 7.83887C78.8324 8.03353 78.8472 8.21973 78.8472 8.39746C78.8472 9.16764 78.7668 9.93994 78.606 10.7144C78.4494 11.4845 78.2251 12.2251 77.9331 12.936C77.6453 13.647 77.2983 14.3092 76.8921 14.9229C76.4858 15.5322 76.0352 16.0633 75.54 16.5161C75.0492 16.9689 74.5202 17.3244 73.9531 17.5825C73.3861 17.8407 72.7979 17.9697 72.1885 17.9697C71.6849 17.9697 71.2469 17.8322 70.8745 17.5571C70.5021 17.2821 70.2038 16.8377 69.9795 16.2241C69.7383 16.4526 69.4801 16.6621 69.2051 16.8525C68.9342 17.043 68.6528 17.208 68.3608 17.3477C68.0688 17.4873 67.7705 17.5952 67.4658 17.6714C67.1611 17.7476 66.8564 17.7856 66.5518 17.7856C66.0947 17.7856 65.6758 17.7222 65.2949 17.5952C64.9183 17.4725 64.5924 17.2778 64.3174 17.0112C64.0465 16.7446 63.835 16.404 63.6826 15.9893C63.5303 15.5703 63.4541 15.0688 63.4541 14.4849C63.4541 13.9686 63.5028 13.4777 63.6001 13.0122C63.6974 12.5467 63.835 12.0918 64.0127 11.6475C64.1947 11.2031 64.4147 10.763 64.6729 10.3271C64.931 9.88704 65.2188 9.43636 65.5361 8.9751ZM84.8647 9.00049C84.8647 8.72542 84.8161 8.51383 84.7188 8.36572C84.6257 8.21338 84.5008 8.13721 84.3442 8.13721C84.2554 8.13721 84.1475 8.19434 84.0205 8.30859C83.8978 8.41862 83.7751 8.58577 83.6523 8.81006C83.5296 9.03434 83.4175 9.31576 83.3159 9.6543C83.2186 9.99284 83.1466 10.3885 83.1001 10.8413C83.464 10.7778 83.7603 10.6826 83.9888 10.5557C84.2173 10.4245 84.3971 10.2764 84.5283 10.1113C84.6595 9.94629 84.7484 9.76855 84.7949 9.57812C84.8415 9.3877 84.8647 9.19515 84.8647 9.00049ZM82.9922 17.7349C82.3574 17.7349 81.8052 17.6375 81.3354 17.4429C80.87 17.2482 80.4827 16.9647 80.1738 16.5923C79.8691 16.2157 79.6427 15.7565 79.4946 15.2148C79.3465 14.6689 79.2725 14.0448 79.2725 13.3423C79.2725 12.6864 79.355 12.0368 79.52 11.3936C79.6851 10.7461 79.9093 10.1283 80.1929 9.54004C80.4764 8.95182 80.8065 8.40592 81.1831 7.90234C81.564 7.39876 81.966 6.96289 82.3892 6.59473C82.8123 6.22233 83.2461 5.93245 83.6904 5.7251C84.139 5.51351 84.5749 5.40771 84.998 5.40771C85.8952 5.40771 86.5828 5.62777 87.061 6.06787C87.5392 6.50374 87.7783 7.1766 87.7783 8.08643C87.7783 8.63232 87.6937 9.14648 87.5244 9.62891C87.3551 10.1071 87.078 10.5472 86.6929 10.9492C86.312 11.347 85.8127 11.7004 85.1948 12.0093C84.5812 12.314 83.8301 12.5679 82.9414 12.771C82.9414 13.063 82.9583 13.3232 82.9922 13.5518C83.0303 13.776 83.0938 13.9644 83.1826 14.1167C83.2757 14.269 83.4027 14.3854 83.5635 14.4658C83.7285 14.5462 83.938 14.5864 84.1919 14.5864C84.632 14.5864 85.0975 14.4976 85.5884 14.3198C86.0835 14.1379 86.5744 13.8818 87.061 13.5518C87.5519 13.2217 88.0259 12.826 88.4829 12.3647C88.9442 11.8993 89.3589 11.383 89.7271 10.8159C89.8836 10.8201 90.0233 10.8498 90.146 10.9048C90.2687 10.9556 90.3724 11.0212 90.457 11.1016C90.5417 11.1777 90.6051 11.2666 90.6475 11.3682C90.694 11.4697 90.7173 11.5713 90.7173 11.6729C90.7173 11.9141 90.6517 12.187 90.5205 12.4917C90.3936 12.7922 90.2137 13.1074 89.981 13.4375C89.7524 13.7633 89.4795 14.0977 89.1621 14.4404C88.8447 14.779 88.4977 15.109 88.1211 15.4307C87.7445 15.748 87.3446 16.0464 86.9214 16.3257C86.4982 16.605 86.0666 16.8504 85.6265 17.062C85.1864 17.2694 84.742 17.4323 84.2935 17.5508C83.8491 17.6735 83.4154 17.7349 82.9922 17.7349ZM89.8667 10.0352C90.0952 10.0352 90.3089 10.1007 90.5078 10.2319C90.7067 10.3589 90.8802 10.5155 91.0283 10.7017C91.1764 10.8879 91.2928 11.0868 91.3774 11.2983C91.4621 11.5099 91.5044 11.6961 91.5044 11.8569C91.5044 11.9924 91.4896 12.1214 91.46 12.2441C91.4303 12.3626 91.3859 12.479 91.3267 12.5933C91.2716 12.7075 91.2018 12.8218 91.1172 12.936C91.0368 13.0461 90.9416 13.1624 90.8315 13.2852C90.8823 13.5729 90.9712 13.8353 91.0981 14.0723C91.2251 14.3092 91.369 14.5124 91.5298 14.6816C91.6906 14.8509 91.8577 14.9821 92.0312 15.0752C92.209 15.1683 92.3719 15.2148 92.52 15.2148C92.5835 15.2148 92.647 15.2043 92.7104 15.1831C92.7782 15.1619 92.8374 15.1281 92.8882 15.0815C92.9432 15.0308 92.9855 14.9673 93.0151 14.8911C93.049 14.8149 93.0659 14.7218 93.0659 14.6118C93.0659 14.3918 93.0278 14.1252 92.9517 13.812C92.8797 13.4989 92.7866 13.1624 92.6724 12.8027C92.5623 12.443 92.4417 12.0685 92.3105 11.6792C92.1794 11.2899 92.0566 10.9069 91.9424 10.5303C91.8324 10.1536 91.7393 9.79395 91.6631 9.45117C91.5911 9.1084 91.5552 8.8016 91.5552 8.53076C91.5552 7.98486 91.6589 7.48551 91.8662 7.03271C92.0778 6.57992 92.3677 6.19059 92.7358 5.86475C93.104 5.5389 93.5399 5.28711 94.0435 5.10938C94.5513 4.92741 95.1014 4.83643 95.6938 4.83643C96.4471 4.83643 97.0332 4.99723 97.4521 5.31885C97.8711 5.64046 98.0806 6.1123 98.0806 6.73438C98.0806 7.00944 98.0277 7.27393 97.9219 7.52783C97.8203 7.77751 97.6912 7.98063 97.5347 8.13721C97.0353 7.92985 96.5762 7.82617 96.1572 7.82617C95.8822 7.82617 95.6748 7.87272 95.5352 7.96582C95.3955 8.05469 95.3257 8.21761 95.3257 8.45459C95.3257 8.64925 95.3617 8.8693 95.4336 9.11475C95.5098 9.36019 95.6029 9.62467 95.7129 9.9082C95.8229 10.1875 95.9414 10.4837 96.0684 10.7969C96.1953 11.1058 96.3138 11.4211 96.4238 11.7427C96.5339 12.0643 96.6248 12.388 96.6968 12.7139C96.7729 13.0397 96.811 13.3613 96.811 13.6787C96.811 14.2035 96.7412 14.6753 96.6016 15.0942C96.4619 15.5132 96.2715 15.8856 96.0303 16.2114C95.7891 16.533 95.5055 16.8102 95.1797 17.043C94.8538 17.2757 94.5047 17.4661 94.1323 17.6143C93.7599 17.7624 93.3727 17.8703 92.9707 17.938C92.5729 18.0099 92.1794 18.0459 91.79 18.0459C91.2822 18.0459 90.8083 17.9613 90.3682 17.792C89.9323 17.6227 89.5514 17.3709 89.2256 17.0366C88.8997 16.7023 88.6437 16.2897 88.4575 15.7988C88.2713 15.3037 88.1782 14.7345 88.1782 14.0913C88.1782 13.8374 88.1888 13.5602 88.21 13.2598C88.2354 12.9593 88.2756 12.6589 88.3306 12.3584C88.3856 12.0579 88.4554 11.7681 88.54 11.4888C88.6289 11.2095 88.7347 10.9619 88.8574 10.7461C88.9844 10.5303 89.1304 10.3589 89.2954 10.2319C89.4647 10.1007 89.6551 10.0352 89.8667 10.0352ZM106.644 6.16309C106.91 6.16309 107.143 6.20752 107.342 6.29639C107.541 6.38102 107.706 6.50163 107.837 6.6582C107.968 6.81055 108.065 6.99463 108.129 7.21045C108.197 7.42204 108.23 7.65479 108.23 7.90869C108.23 8.11605 108.216 8.34456 108.186 8.59424C108.156 8.83968 108.114 9.09782 108.059 9.36865C108.004 9.63949 107.941 9.91878 107.869 10.2065C107.797 10.4901 107.718 10.7736 107.634 11.0571C107.549 11.3364 107.46 11.6115 107.367 11.8823C107.274 12.1489 107.179 12.4007 107.082 12.6377C107.124 12.6758 107.187 12.716 107.272 12.7583C107.361 12.8006 107.471 12.8218 107.602 12.8218C107.979 12.8218 108.36 12.6652 108.745 12.3521C109.134 12.0347 109.542 11.5311 109.97 10.8413C110.088 10.8413 110.207 10.8646 110.325 10.9111C110.448 10.9577 110.558 11.0233 110.655 11.1079C110.753 11.1883 110.831 11.2878 110.89 11.4062C110.954 11.5205 110.985 11.6453 110.985 11.7808C110.985 11.9627 110.939 12.1764 110.846 12.4219C110.753 12.6673 110.621 12.9212 110.452 13.1836C110.283 13.446 110.078 13.7041 109.836 13.958C109.595 14.2119 109.329 14.4404 109.037 14.6436C108.745 14.8424 108.429 15.0054 108.091 15.1323C107.752 15.255 107.399 15.3164 107.031 15.3164C106.794 15.3164 106.597 15.2974 106.44 15.2593C106.284 15.217 106.134 15.1493 105.99 15.0562C105.681 15.4793 105.359 15.8538 105.025 16.1797C104.695 16.5055 104.348 16.7806 103.984 17.0049C103.62 17.2249 103.237 17.3921 102.835 17.5063C102.433 17.6248 102.003 17.6841 101.546 17.6841C101.085 17.6841 100.653 17.6079 100.251 17.4556C99.8494 17.299 99.5003 17.0662 99.2041 16.7573C98.9079 16.4442 98.673 16.0506 98.4995 15.5767C98.3302 15.1027 98.2456 14.5483 98.2456 13.9136C98.2456 13.1942 98.3197 12.4938 98.4678 11.8125C98.6159 11.127 98.819 10.4816 99.0771 9.87646C99.3353 9.27132 99.64 8.71696 99.9912 8.21338C100.347 7.7098 100.73 7.27604 101.14 6.91211C101.551 6.54395 101.982 6.2583 102.435 6.05518C102.892 5.85205 103.349 5.75049 103.806 5.75049C103.975 5.75049 104.149 5.76953 104.327 5.80762C104.509 5.8457 104.674 5.90918 104.822 5.99805C104.97 6.08691 105.093 6.2054 105.19 6.35352C105.287 6.4974 105.338 6.67725 105.342 6.89307C105.524 6.66878 105.723 6.49105 105.939 6.35986C106.159 6.22868 106.394 6.16309 106.644 6.16309ZM101.934 12.9487C101.934 13.2661 101.959 13.5306 102.01 13.7422C102.065 13.9538 102.137 14.123 102.226 14.25C102.314 14.3727 102.414 14.4595 102.524 14.5103C102.638 14.561 102.755 14.5864 102.873 14.5864C103.03 14.5864 103.178 14.5589 103.317 14.5039C103.461 14.4447 103.597 14.3664 103.724 14.269C103.851 14.1717 103.969 14.0596 104.079 13.9326C104.189 13.8014 104.289 13.6639 104.377 13.52C104.306 13.3719 104.244 13.2026 104.193 13.0122C104.143 12.8175 104.1 12.6144 104.066 12.4028C104.033 12.1912 104.007 11.9775 103.99 11.7617C103.973 11.5417 103.965 11.3301 103.965 11.127C103.965 10.873 103.984 10.6022 104.022 10.3145C104.06 10.0225 104.115 9.72624 104.187 9.42578C104.263 9.12533 104.354 8.82699 104.46 8.53076C104.566 8.23454 104.686 7.95736 104.822 7.69922C104.555 7.82617 104.297 7.99544 104.047 8.20703C103.802 8.41439 103.571 8.65348 103.355 8.92432C103.144 9.19515 102.949 9.49137 102.771 9.81299C102.598 10.1304 102.448 10.4626 102.321 10.8096C102.198 11.1566 102.103 11.512 102.035 11.876C101.967 12.2357 101.934 12.5933 101.934 12.9487ZM118.812 10.1177C119.345 9.31787 119.836 8.6429 120.285 8.09277C120.733 7.54264 121.15 7.09831 121.535 6.75977C121.92 6.42122 122.276 6.1779 122.602 6.02979C122.927 5.87744 123.232 5.80127 123.516 5.80127C123.816 5.80127 124.076 5.85417 124.296 5.95996C124.521 6.06576 124.705 6.20752 124.849 6.38525C124.997 6.55876 125.107 6.76188 125.179 6.99463C125.251 7.22738 125.287 7.4707 125.287 7.72461C125.287 8.06315 125.227 8.45671 125.109 8.90527C124.995 9.35384 124.819 9.85319 124.582 10.4033C124.506 10.5938 124.415 10.8117 124.309 11.0571C124.203 11.2983 124.095 11.5522 123.985 11.8188C123.875 12.0812 123.765 12.3478 123.655 12.6187C123.545 12.8853 123.448 13.137 123.363 13.374C123.279 13.611 123.209 13.8247 123.154 14.0151C123.103 14.2013 123.078 14.3494 123.078 14.4595C123.078 14.6034 123.107 14.7049 123.167 14.7642C123.23 14.8192 123.321 14.8467 123.439 14.8467C123.558 14.8467 123.744 14.7642 123.998 14.5991C124.256 14.4299 124.559 14.1823 124.906 13.8564C125.257 13.5264 125.642 13.118 126.061 12.6313C126.484 12.1447 126.92 11.584 127.369 10.9492C127.491 10.9492 127.612 10.9704 127.73 11.0127C127.853 11.0508 127.961 11.1079 128.054 11.1841C128.152 11.256 128.23 11.3449 128.289 11.4507C128.348 11.5565 128.378 11.675 128.378 11.8062C128.378 12.0093 128.31 12.2568 128.175 12.5488C128.044 12.8408 127.862 13.154 127.629 13.4883C127.396 13.8226 127.123 14.1717 126.81 14.5356C126.501 14.8953 126.167 15.2487 125.807 15.5957C125.447 15.9385 125.073 16.2643 124.684 16.5732C124.299 16.8822 123.916 17.153 123.535 17.3857C123.154 17.6185 122.784 17.8026 122.424 17.938C122.068 18.0776 121.74 18.1475 121.44 18.1475C121.055 18.1475 120.731 18.1051 120.469 18.0205C120.206 17.9359 119.995 17.8068 119.834 17.6333C119.673 17.4598 119.557 17.2419 119.485 16.9795C119.417 16.7129 119.383 16.4019 119.383 16.0464C119.383 15.7586 119.421 15.4391 119.498 15.0879C119.574 14.7367 119.669 14.3791 119.783 14.0151C119.897 13.647 120.02 13.283 120.151 12.9233C120.283 12.5636 120.405 12.2336 120.52 11.9331C120.634 11.6284 120.729 11.3639 120.805 11.1396C120.881 10.9154 120.919 10.7567 120.919 10.6636C120.919 10.4562 120.816 10.3525 120.608 10.3525C120.549 10.3525 120.45 10.3885 120.31 10.4604C120.175 10.5324 120.01 10.6466 119.815 10.8032C119.625 10.9556 119.413 11.1566 119.18 11.4062C118.947 11.6517 118.704 11.95 118.45 12.3013C118.357 12.8006 118.272 13.2725 118.196 13.7168C118.12 14.1569 118.05 14.5864 117.987 15.0054C117.928 15.4201 117.877 15.8348 117.834 16.2495C117.796 16.66 117.767 17.0853 117.746 17.5254C117.682 17.5889 117.617 17.646 117.549 17.6968C117.485 17.7476 117.413 17.7878 117.333 17.8174C117.253 17.8512 117.162 17.8766 117.06 17.8936C116.958 17.9105 116.84 17.9189 116.705 17.9189C116.341 17.9189 116.008 17.8787 115.708 17.7983C115.408 17.7222 115.149 17.5973 114.934 17.4238C114.718 17.2503 114.549 17.0282 114.426 16.7573C114.307 16.4823 114.244 16.1501 114.235 15.7607C114.235 15.5111 114.259 15.2339 114.305 14.9292C114.356 14.6203 114.422 14.3008 114.502 13.9707C114.582 13.6406 114.675 13.3063 114.781 12.9678C114.891 12.625 115.003 12.2992 115.118 11.9902C115.168 11.8464 115.219 11.7046 115.27 11.5649C115.325 11.4211 115.374 11.2856 115.416 11.1587C115.458 11.0317 115.492 10.9154 115.518 10.8096C115.547 10.7038 115.562 10.6191 115.562 10.5557C115.562 10.4414 115.537 10.361 115.486 10.3145C115.435 10.2679 115.357 10.2446 115.251 10.2446C115.192 10.2446 115.107 10.2721 114.997 10.3271C114.891 10.3822 114.76 10.4795 114.604 10.6191C114.451 10.7546 114.271 10.9386 114.064 11.1714C113.861 11.3999 113.632 11.6898 113.378 12.041C113.29 12.5404 113.207 13.0122 113.131 13.4565C113.059 13.8966 112.993 14.3262 112.934 14.7451C112.879 15.1598 112.833 15.5745 112.794 15.9893C112.756 16.3997 112.727 16.825 112.706 17.2651C112.642 17.3286 112.579 17.3836 112.515 17.4302C112.456 17.4725 112.388 17.5063 112.312 17.5317C112.236 17.5571 112.145 17.5741 112.039 17.5825C111.938 17.5952 111.813 17.6016 111.665 17.6016C111.301 17.6016 110.964 17.5233 110.655 17.3667C110.346 17.2059 110.078 16.9901 109.849 16.7192C109.625 16.4484 109.447 16.1374 109.316 15.7861C109.189 15.4307 109.121 15.0583 109.113 14.6689C109.113 14.4193 109.13 14.1527 109.164 13.8691C109.197 13.5814 109.246 13.2852 109.31 12.9805C109.373 12.6715 109.449 12.3605 109.538 12.0474C109.631 11.7342 109.733 11.4274 109.843 11.127C109.737 10.8815 109.667 10.617 109.633 10.3335C109.599 10.05 109.583 9.77913 109.583 9.521C109.583 9.26286 109.635 9.00049 109.741 8.73389C109.851 8.46305 109.997 8.20068 110.179 7.94678C110.365 7.68864 110.581 7.44531 110.827 7.2168C111.072 6.98828 111.33 6.78939 111.601 6.62012C111.876 6.44661 112.158 6.3112 112.445 6.21387C112.733 6.1123 113.01 6.06152 113.277 6.06152C113.653 6.06152 113.933 6.14616 114.115 6.31543C114.301 6.48047 114.394 6.75977 114.394 7.15332C114.394 7.31413 114.381 7.49398 114.356 7.69287C114.331 7.88753 114.286 8.10547 114.223 8.34668C114.163 8.58789 114.081 8.85449 113.975 9.14648C113.874 9.43424 113.744 9.74951 113.588 10.0923C114.062 9.27132 114.5 8.60059 114.902 8.08008C115.308 7.55957 115.687 7.14909 116.038 6.84863C116.394 6.54818 116.726 6.34294 117.035 6.23291C117.348 6.11865 117.646 6.06152 117.93 6.06152C118.175 6.06152 118.393 6.10173 118.583 6.18213C118.774 6.2583 118.933 6.36621 119.06 6.50586C119.191 6.64128 119.29 6.80208 119.358 6.98828C119.426 7.17448 119.459 7.37549 119.459 7.59131C119.459 7.76058 119.455 7.92985 119.447 8.09912C119.438 8.26416 119.413 8.44401 119.371 8.63867C119.328 8.83333 119.263 9.05127 119.174 9.29248C119.089 9.52946 118.969 9.80452 118.812 10.1177ZM131.888 9.00049C131.888 8.72542 131.84 8.51383 131.742 8.36572C131.649 8.21338 131.524 8.13721 131.368 8.13721C131.279 8.13721 131.171 8.19434 131.044 8.30859C130.921 8.41862 130.799 8.58577 130.676 8.81006C130.553 9.03434 130.441 9.31576 130.339 9.6543C130.242 9.99284 130.17 10.3885 130.124 10.8413C130.487 10.7778 130.784 10.6826 131.012 10.5557C131.241 10.4245 131.421 10.2764 131.552 10.1113C131.683 9.94629 131.772 9.76855 131.818 9.57812C131.865 9.3877 131.888 9.19515 131.888 9.00049ZM130.016 17.7349C129.381 17.7349 128.829 17.6375 128.359 17.4429C127.893 17.2482 127.506 16.9647 127.197 16.5923C126.893 16.2157 126.666 15.7565 126.518 15.2148C126.37 14.6689 126.296 14.0448 126.296 13.3423C126.296 12.6864 126.378 12.0368 126.543 11.3936C126.708 10.7461 126.933 10.1283 127.216 9.54004C127.5 8.95182 127.83 8.40592 128.207 7.90234C128.587 7.39876 128.989 6.96289 129.413 6.59473C129.836 6.22233 130.27 5.93245 130.714 5.7251C131.162 5.51351 131.598 5.40771 132.021 5.40771C132.919 5.40771 133.606 5.62777 134.084 6.06787C134.563 6.50374 134.802 7.1766 134.802 8.08643C134.802 8.63232 134.717 9.14648 134.548 9.62891C134.379 10.1071 134.101 10.5472 133.716 10.9492C133.335 11.347 132.836 11.7004 132.218 12.0093C131.605 12.314 130.854 12.5679 129.965 12.771C129.965 13.063 129.982 13.3232 130.016 13.5518C130.054 13.776 130.117 13.9644 130.206 14.1167C130.299 14.269 130.426 14.3854 130.587 14.4658C130.752 14.5462 130.961 14.5864 131.215 14.5864C131.655 14.5864 132.121 14.4976 132.612 14.3198C133.107 14.1379 133.598 13.8818 134.084 13.5518C134.575 13.2217 135.049 12.826 135.506 12.3647C135.968 11.8993 136.382 11.383 136.75 10.8159C136.907 10.8201 137.047 10.8498 137.169 10.9048C137.292 10.9556 137.396 11.0212 137.48 11.1016C137.565 11.1777 137.629 11.2666 137.671 11.3682C137.717 11.4697 137.741 11.5713 137.741 11.6729C137.741 11.9141 137.675 12.187 137.544 12.4917C137.417 12.7922 137.237 13.1074 137.004 13.4375C136.776 13.7633 136.503 14.0977 136.186 14.4404C135.868 14.779 135.521 15.109 135.145 15.4307C134.768 15.748 134.368 16.0464 133.945 16.3257C133.522 16.605 133.09 16.8504 132.65 17.062C132.21 17.2694 131.765 17.4323 131.317 17.5508C130.873 17.6735 130.439 17.7349 130.016 17.7349Z" fill="white"/>
</svg>
